<svg width="76" height="96" viewBox="0 0 76 96" fill="none" xmlns="http://www.w3.org/2000/svg">
<rect width="76" height="96" rx="12" fill="#F7F6F9"/>
<path fill-rule="evenodd" clip-rule="evenodd" d="M28.75 24C28.75 22.2051 30.2051 20.75 32 20.75H40C40.4142 20.75 40.75 20.4142 40.75 20C40.75 19.5858 40.4142 19.25 40 19.25H32C29.3766 19.25 27.25 21.3766 27.25 24V36C27.25 38.6234 29.3766 40.75 32 40.75H44C46.6234 40.75 48.75 38.6234 48.75 36V28C48.75 27.5858 48.4142 27.25 48 27.25C47.5858 27.25 47.25 27.5858 47.25 28V31.5091C47.2049 31.473 47.158 31.4387 47.1094 31.4063L44.7285 29.819C43.142 28.7613 41.0295 28.9705 39.6812 30.3188L36.3188 33.6812C34.9705 35.0295 32.858 35.2387 31.2715 34.181L28.75 32.5V24ZM45.75 20C45.75 19.5858 45.4142 19.25 45 19.25C44.5858 19.25 44.25 19.5858 44.25 20V22.25H42C41.5858 22.25 41.25 22.5858 41.25 23C41.25 23.4142 41.5858 23.75 42 23.75H44.25V26C44.25 26.4142 44.5858 26.75 45 26.75C45.4142 26.75 45.75 26.4142 45.75 26V23.75H48C48.4142 23.75 48.75 23.4142 48.75 23C48.75 22.5858 48.4142 22.25 48 22.25H45.75V20ZM34.5 29C35.8807 29 37 27.8807 37 26.5C37 25.1193 35.8807 24 34.5 24C33.1193 24 32 25.1193 32 26.5C32 27.8807 33.1193 29 34.5 29Z" fill="#5458EA"/>
<path d="M9.66939 62.1094V58.8835H10.2447C10.4407 58.7187 10.6239 58.4844 10.7944 58.1804C10.9648 57.8764 11.1097 57.4659 11.229 56.9489C11.3484 56.4318 11.4308 55.7685 11.4762 54.9588L11.6808 51.2727H17.0629V58.8835H18.0515V62.0966H16.7901V60H10.9308V62.1094H9.66939ZM11.7958 58.8835H15.8015V52.4062H12.8739L12.7376 54.9588C12.7006 55.5753 12.6396 56.1293 12.5543 56.6207C12.4719 57.1122 12.3654 57.5469 12.2347 57.9247C12.1069 58.2997 11.9606 58.6193 11.7958 58.8835ZM22.1488 60.1321C21.5352 60.1321 20.9996 59.9915 20.5423 59.7102C20.0849 59.429 19.7298 59.0355 19.4769 58.5298C19.2241 58.0241 19.0977 57.4332 19.0977 56.7571C19.0977 56.0781 19.2241 55.4844 19.4769 54.9759C19.7298 54.4673 20.0849 54.0724 20.5423 53.7912C20.9996 53.5099 21.5352 53.3693 22.1488 53.3693C22.7624 53.3693 23.2979 53.5099 23.7553 53.7912C24.2127 54.0724 24.5678 54.4673 24.8207 54.9759C25.0735 55.4844 25.1999 56.0781 25.1999 56.7571C25.1999 57.4332 25.0735 58.0241 24.8207 58.5298C24.5678 59.0355 24.2127 59.429 23.7553 59.7102C23.2979 59.9915 22.7624 60.1321 22.1488 60.1321ZM22.1531 59.0625C22.5508 59.0625 22.8803 58.9574 23.1417 58.7472C23.4031 58.5369 23.5962 58.2571 23.7212 57.9077C23.8491 57.5582 23.913 57.1733 23.913 56.7528C23.913 56.3352 23.8491 55.9517 23.7212 55.6023C23.5962 55.25 23.4031 54.9673 23.1417 54.7543C22.8803 54.5412 22.5508 54.4347 22.1531 54.4347C21.7525 54.4347 21.4201 54.5412 21.1559 54.7543C20.8945 54.9673 20.6999 55.25 20.5721 55.6023C20.4471 55.9517 20.3846 56.3352 20.3846 56.7528C20.3846 57.1733 20.4471 57.5582 20.5721 57.9077C20.6999 58.2571 20.8945 58.5369 21.1559 58.7472C21.4201 58.9574 21.7525 59.0625 22.1531 59.0625ZM31.6719 51.017L32.2003 51.8224C32.0043 52.0014 31.7812 52.1293 31.5312 52.206C31.2841 52.2798 30.9986 52.3267 30.6747 52.3466C30.3509 52.3636 29.9801 52.3793 29.5625 52.3935C29.0909 52.4077 28.7031 52.5099 28.3991 52.7003C28.0952 52.8878 27.8608 53.1662 27.696 53.5355C27.5341 53.902 27.429 54.3622 27.3807 54.9162H27.4616C27.6747 54.5099 27.9702 54.206 28.348 54.0043C28.7287 53.8026 29.1563 53.7017 29.6307 53.7017C30.1591 53.7017 30.6293 53.8224 31.0412 54.0639C31.4531 54.3054 31.777 54.6591 32.0128 55.125C32.2514 55.5881 32.3707 56.1548 32.3707 56.8253C32.3707 57.5043 32.2457 58.0909 31.9957 58.5852C31.7486 59.0795 31.3991 59.4616 30.9474 59.7315C30.4986 59.9986 29.9688 60.1321 29.358 60.1321C28.7472 60.1321 28.2145 59.9943 27.7599 59.7188C27.3082 59.4403 26.9574 59.0284 26.7074 58.483C26.4602 57.9375 26.3366 57.2642 26.3366 56.4631V55.8153C26.3366 54.3182 26.6037 53.1918 27.1378 52.4361C27.6719 51.6804 28.4702 51.2926 29.5327 51.2727C29.8764 51.2642 30.1832 51.2628 30.4531 51.2685C30.723 51.2713 30.9588 51.2585 31.1605 51.2301C31.3651 51.1989 31.5355 51.1278 31.6719 51.017ZM29.3622 59.0625C29.7173 59.0625 30.0227 58.973 30.2784 58.794C30.5369 58.6122 30.7358 58.3551 30.875 58.0227C31.0142 57.6903 31.0838 57.2983 31.0838 56.8466C31.0838 56.4034 31.0142 56.027 30.875 55.7173C30.7358 55.4077 30.5369 55.1719 30.2784 55.0099C30.0199 54.8452 29.7102 54.7628 29.3494 54.7628C29.0824 54.7628 28.8438 54.8097 28.6335 54.9034C28.4233 54.9943 28.2429 55.1293 28.0923 55.3082C27.9446 55.4872 27.8295 55.706 27.7472 55.9645C27.6676 56.2202 27.625 56.5142 27.6193 56.8466C27.6193 57.5227 27.7741 58.0611 28.0838 58.4616C28.3963 58.8622 28.8224 59.0625 29.3622 59.0625ZM35.6989 60.1449C35.2841 60.1449 34.9091 60.0682 34.5739 59.9148C34.2386 59.7585 33.973 59.5327 33.777 59.2372C33.5838 58.9418 33.4872 58.5795 33.4872 58.1506C33.4872 57.7812 33.5582 57.4773 33.7003 57.2386C33.8423 57 34.0341 56.8111 34.2756 56.6719C34.517 56.5327 34.7869 56.4276 35.0852 56.3565C35.3835 56.2855 35.6875 56.2315 35.9972 56.1946C36.3892 56.1491 36.7074 56.1122 36.9517 56.0838C37.196 56.0526 37.3736 56.0028 37.4844 55.9347C37.5952 55.8665 37.6506 55.7557 37.6506 55.6023V55.5724C37.6506 55.2003 37.5455 54.9119 37.3352 54.7074C37.1278 54.5028 36.8182 54.4006 36.4062 54.4006C35.9773 54.4006 35.6392 54.4957 35.392 54.6861C35.1477 54.8736 34.9787 55.0824 34.8849 55.3125L33.6875 55.0398C33.8295 54.642 34.0369 54.321 34.3097 54.0767C34.5852 53.8295 34.902 53.6506 35.2599 53.5398C35.6179 53.4261 35.9943 53.3693 36.3892 53.3693C36.6506 53.3693 36.9276 53.4006 37.2202 53.4631C37.5156 53.5227 37.7912 53.6335 38.0469 53.7955C38.3054 53.9574 38.517 54.1889 38.6818 54.4901C38.8466 54.7884 38.929 55.1761 38.929 55.6534V60H37.6847V59.1051H37.6335C37.5511 59.2699 37.4276 59.4318 37.2628 59.5909C37.098 59.75 36.8864 59.8821 36.6278 59.9872C36.3693 60.0923 36.0597 60.1449 35.6989 60.1449ZM35.9759 59.1222C36.3281 59.1222 36.6293 59.0526 36.8793 58.9134C37.1321 58.7741 37.3239 58.5923 37.4545 58.3679C37.5881 58.1406 37.6548 57.8977 37.6548 57.6392V56.7955C37.6094 56.8409 37.5213 56.8835 37.3906 56.9233C37.2628 56.9602 37.1165 56.9929 36.9517 57.0213C36.7869 57.0469 36.6264 57.071 36.4702 57.0938C36.3139 57.1136 36.1832 57.1307 36.0781 57.1449C35.831 57.1761 35.6051 57.2287 35.4006 57.3026C35.1989 57.3764 35.0369 57.483 34.9148 57.6222C34.7955 57.7585 34.7358 57.9403 34.7358 58.1676C34.7358 58.483 34.8523 58.7216 35.0852 58.8835C35.3182 59.0426 35.6151 59.1222 35.9759 59.1222ZM40.6261 60V53.4545H43.3406C44.0792 53.4545 44.6644 53.6122 45.0962 53.9276C45.5281 54.2401 45.744 54.6648 45.744 55.2017C45.744 55.5852 45.6218 55.8892 45.3775 56.1136C45.1332 56.3381 44.8093 56.4886 44.4059 56.5653C44.6985 56.5994 44.967 56.6875 45.2113 56.8295C45.4556 56.9687 45.6516 57.1562 45.7994 57.392C45.9499 57.6278 46.0252 57.9091 46.0252 58.2358C46.0252 58.5824 45.9357 58.8892 45.7567 59.1562C45.5778 59.4205 45.3178 59.6278 44.9769 59.7784C44.6388 59.9261 44.2312 60 43.7539 60H40.6261ZM41.8235 58.9347H43.7539C44.0692 58.9347 44.3164 58.8594 44.4954 58.7088C44.6744 58.5582 44.7638 58.3537 44.7638 58.0952C44.7638 57.7912 44.6744 57.5526 44.4954 57.3793C44.3164 57.2031 44.0692 57.1151 43.7539 57.1151H41.8235V58.9347ZM41.8235 56.1818H43.3533C43.592 56.1818 43.7965 56.1477 43.967 56.0795C44.1403 56.0114 44.2724 55.9148 44.3633 55.7898C44.457 55.6619 44.5039 55.5114 44.5039 55.3381C44.5039 55.0852 44.4002 54.8878 44.1928 54.7457C43.9854 54.6037 43.7013 54.5327 43.3406 54.5327H41.8235V56.1818ZM48.6715 58.2145L51.5565 53.4545H52.9286V60H51.68V55.2358L48.8079 60H47.4229V53.4545H48.6715V58.2145ZM53.8299 54.554V53.4545H59.3526V54.554H57.2177V60H55.9734V54.554H53.8299ZM61.6591 55.7045H63.5597C64.3608 55.7045 64.9773 55.9034 65.4091 56.3011C65.8409 56.6989 66.0568 57.2116 66.0568 57.8395C66.0568 58.2486 65.9602 58.6165 65.767 58.9432C65.5739 59.2699 65.2912 59.5284 64.919 59.7188C64.5469 59.9062 64.0938 60 63.5597 60H60.7003V53.4545H61.9489V58.9006H63.5597C63.9261 58.9006 64.2273 58.8054 64.4631 58.6151C64.6989 58.4219 64.8168 58.1761 64.8168 57.8778C64.8168 57.5625 64.6989 57.3054 64.4631 57.1065C64.2273 56.9048 63.9261 56.804 63.5597 56.804H61.6591V55.7045ZM27.2475 77.2287V66.2727H28.5217V77.2287H27.2475ZM27.2475 75.1321C26.7844 75.1321 26.3626 75.0526 25.9819 74.8935C25.6012 74.7315 25.2731 74.5014 24.9975 74.2031C24.7219 73.9048 24.5089 73.5483 24.3583 73.1335C24.2106 72.7187 24.1367 72.2599 24.1367 71.7571C24.1367 71.2486 24.2106 70.7869 24.3583 70.3722C24.5089 69.9574 24.7219 69.6009 24.9975 69.3026C25.2731 69.0043 25.6012 68.7741 25.9819 68.6122C26.3626 68.4503 26.7844 68.3693 27.2475 68.3693H27.5629V75.1321H27.2475ZM27.2475 74.0582H27.4265V69.4432H27.2475C26.9407 69.4432 26.6737 69.5057 26.4464 69.6307C26.2191 69.7528 26.0302 69.9219 25.8796 70.1378C25.729 70.3509 25.6154 70.5966 25.5387 70.875C25.4648 71.1534 25.4279 71.4474 25.4279 71.7571C25.4279 72.1719 25.4947 72.554 25.6282 72.9034C25.7617 73.25 25.9634 73.5298 26.2333 73.7429C26.5032 73.9531 26.8413 74.0582 27.2475 74.0582ZM28.5217 75.1321H28.2021V68.3693H28.5217C28.9847 68.3693 29.4066 68.4503 29.7873 68.6122C30.168 68.7741 30.4947 69.0043 30.7674 69.3026C31.043 69.6009 31.2546 69.9574 31.4023 70.3722C31.5529 70.7869 31.6282 71.2486 31.6282 71.7571C31.6282 72.2599 31.5529 72.7187 31.4023 73.1335C31.2546 73.5483 31.043 73.9048 30.7674 74.2031C30.4947 74.5014 30.168 74.7315 29.7873 74.8935C29.4066 75.0526 28.9847 75.1321 28.5217 75.1321ZM28.5217 74.0582C28.8285 74.0582 29.0955 73.9986 29.3228 73.8793C29.5501 73.7571 29.739 73.5895 29.8896 73.3764C30.0401 73.1605 30.1523 72.9148 30.2262 72.6392C30.3001 72.3608 30.337 72.0668 30.337 71.7571C30.337 71.3452 30.2702 70.9645 30.1367 70.6151C30.006 70.2628 29.8058 69.9801 29.5359 69.767C29.266 69.5511 28.9279 69.4432 28.5217 69.4432H28.3384V74.0582H28.5217ZM35.8011 75.1321C35.1875 75.1321 34.652 74.9915 34.1946 74.7102C33.7372 74.429 33.3821 74.0355 33.1293 73.5298C32.8764 73.0241 32.75 72.4332 32.75 71.7571C32.75 71.0781 32.8764 70.4844 33.1293 69.9759C33.3821 69.4673 33.7372 69.0724 34.1946 68.7912C34.652 68.5099 35.1875 68.3693 35.8011 68.3693C36.4148 68.3693 36.9503 68.5099 37.4077 68.7912C37.8651 69.0724 38.2202 69.4673 38.473 69.9759C38.7259 70.4844 38.8523 71.0781 38.8523 71.7571C38.8523 72.4332 38.7259 73.0241 38.473 73.5298C38.2202 74.0355 37.8651 74.429 37.4077 74.7102C36.9503 74.9915 36.4148 75.1321 35.8011 75.1321ZM35.8054 74.0625C36.2031 74.0625 36.5327 73.9574 36.794 73.7472C37.0554 73.5369 37.2486 73.2571 37.3736 72.9077C37.5014 72.5582 37.5653 72.1733 37.5653 71.7528C37.5653 71.3352 37.5014 70.9517 37.3736 70.6023C37.2486 70.25 37.0554 69.9673 36.794 69.7543C36.5327 69.5412 36.2031 69.4347 35.8054 69.4347C35.4048 69.4347 35.0724 69.5412 34.8082 69.7543C34.5469 69.9673 34.3523 70.25 34.2244 70.6023C34.0994 70.9517 34.0369 71.3352 34.0369 71.7528C34.0369 72.1733 34.0994 72.5582 34.2244 72.9077C34.3523 73.2571 34.5469 73.5369 34.8082 73.7472C35.0724 73.9574 35.4048 74.0625 35.8054 74.0625ZM39.4862 69.554V68.4545H45.0089V69.554H42.8739V75H41.6296V69.554H39.4862ZM48.8089 75.1321C48.1953 75.1321 47.6598 74.9915 47.2024 74.7102C46.745 74.429 46.3899 74.0355 46.1371 73.5298C45.8842 73.0241 45.7578 72.4332 45.7578 71.7571C45.7578 71.0781 45.8842 70.4844 46.1371 69.9759C46.3899 69.4673 46.745 69.0724 47.2024 68.7912C47.6598 68.5099 48.1953 68.3693 48.8089 68.3693C49.4226 68.3693 49.9581 68.5099 50.4155 68.7912C50.8729 69.0724 51.228 69.4673 51.4808 69.9759C51.7337 70.4844 51.8601 71.0781 51.8601 71.7571C51.8601 72.4332 51.7337 73.0241 51.4808 73.5298C51.228 74.0355 50.8729 74.429 50.4155 74.7102C49.9581 74.9915 49.4226 75.1321 48.8089 75.1321ZM48.8132 74.0625C49.2109 74.0625 49.5405 73.9574 49.8018 73.7472C50.0632 73.5369 50.2564 73.2571 50.3814 72.9077C50.5092 72.5582 50.5732 72.1733 50.5732 71.7528C50.5732 71.3352 50.5092 70.9517 50.3814 70.6023C50.2564 70.25 50.0632 69.9673 49.8018 69.7543C49.5405 69.5412 49.2109 69.4347 48.8132 69.4347C48.4126 69.4347 48.0803 69.5412 47.8161 69.7543C47.5547 69.9673 47.3601 70.25 47.2322 70.6023C47.1072 70.9517 47.0447 71.3352 47.0447 71.7528C47.0447 72.1733 47.1072 72.5582 47.2322 72.9077C47.3601 73.2571 47.5547 73.5369 47.8161 73.7472C48.0803 73.9574 48.4126 74.0625 48.8132 74.0625Z" fill="#5458EA"/>
</svg>
