<svg width="24" height="24" viewBox="0 0 24 24" fill="none" xmlns="http://www.w3.org/2000/svg">
<path fill-rule="evenodd" clip-rule="evenodd" d="M20.5303 19.4697C20.8232 19.7626 20.8232 20.2374 20.5303 20.5303C20.2374 20.8232 19.7626 20.8232 19.4697 20.5303L3.46967 4.53033C3.17678 4.23744 3.17678 3.76256 3.46967 3.46967C3.76256 3.17678 4.23744 3.17678 4.53033 3.46967L7.3571 6.29644C8.76634 5.52913 10.34 5 12 5C15.8155 5 19.1745 7.79533 21.1303 9.8531C22.2899 11.0732 22.2899 12.9268 21.1303 14.1469C20.3005 15.02 19.218 16.0259 17.9553 16.8947L20.5303 19.4697ZM14.5846 13.524C14.8486 13.0773 15 12.5564 15 12C15 10.3431 13.6569 9 12 9C11.4436 9 10.9227 9.15145 10.476 9.41536L14.5846 13.524ZM12 19C8.18448 19 4.82549 16.2047 2.86971 14.1469C1.7101 12.9268 1.7101 11.0732 2.86971 9.8531C3.30977 9.39009 3.82087 8.88974 4.39223 8.39229L14.5873 18.5874C13.7578 18.8474 12.8914 19 12 19Z" fill="#494949"/>
</svg>
